<?xml version="1.0" encoding="utf-8"?>
<!-- Generator: Adobe Illustrator 16.0.0, SVG Export Plug-In . SVG Version: 6.00 Build 0)  -->
<!DOCTYPE svg PUBLIC "-//W3C//DTD SVG 1.1//EN" "http://www.w3.org/Graphics/SVG/1.1/DTD/svg11.dtd">
<svg version="1.1" id="Layer_1" xmlns="http://www.w3.org/2000/svg" xmlns:xlink="http://www.w3.org/1999/xlink" x="0px" y="0px"
	 width="237.473px" height="35.719px" viewBox="0 0 237.473 35.719" enable-background="new 0 0 237.473 35.719"
	 xml:space="preserve">
<g>
	<path fill="#FFFFFF" d="M169.544,25.456h0.961v-0.57c0-2.402-1.382-3.243-3.242-3.243c-2.402,0-4.354,1.472-4.354,1.472
		l-1.171-2.072c0,0,2.222-1.801,5.766-1.801c3.874,0,5.915,2.012,5.915,5.855v6.785c0,0.451,0.241,0.662,0.661,0.662h1.531v2.252
		h-3.032c-1.352,0-1.893-0.66-1.893-1.651v-0.209c0-0.603,0.12-0.992,0.12-0.992h-0.061c0,0-1.321,3.214-5.016,3.214
		c-2.522,0-5.045-1.472-5.045-4.595C160.685,25.786,167.022,25.456,169.544,25.456z M166.361,32.902
		c2.583,0,4.174-2.642,4.174-4.924v-0.631h-0.75c-1.382,0-6.157,0.062-6.157,2.973C163.627,31.672,164.62,32.902,166.361,32.902z"/>
	<path fill="#FFFFFF" d="M184.529,19.239c3.454,0,4.685,2.553,4.685,2.553h0.062c0,0-0.09-0.479-0.09-1.141v-4.805h-2.522v-2.253
		h5.436v18.289c0,0.451,0.239,0.662,0.66,0.662h1.531v2.252h-3.033c-1.352,0-1.892-0.66-1.892-1.652v-0.209
		c0-0.512,0.091-0.812,0.091-0.812h-0.061c0,0-1.231,3.033-5.136,3.033c-4.084,0-6.637-3.242-6.637-7.957
		C177.623,22.362,180.445,19.239,184.529,19.239z M184.889,32.633c2.253,0,4.385-1.623,4.385-5.406c0-2.793-1.411-5.436-4.294-5.436
		c-2.434,0-4.385,1.951-4.385,5.404C180.595,30.5,182.367,32.633,184.889,32.633z"/>
	<path fill="#FFFFFF" d="M203.417,19.239c3.454,0,4.687,2.553,4.687,2.553h0.06c0,0-0.09-0.479-0.09-1.141v-4.805h-2.522v-2.253
		h5.437v18.289c0,0.451,0.24,0.662,0.66,0.662h1.532v2.252h-3.033c-1.353,0-1.893-0.66-1.893-1.652v-0.209
		c0-0.512,0.09-0.812,0.09-0.812h-0.061c0,0-1.229,3.033-5.135,3.033c-4.084,0-6.637-3.242-6.637-7.957
		C196.51,22.362,199.333,19.239,203.417,19.239z M203.779,32.633c2.252,0,4.384-1.623,4.384-5.406c0-2.793-1.411-5.436-4.294-5.436
		c-2.433,0-4.385,1.951-4.385,5.404C199.484,30.5,201.256,32.633,203.779,32.633z"/>
	<path fill="#FFFFFF" d="M215.581,32.543h2.372V21.852h-2.521v-2.253h5.436v12.944h2.402v2.252h-7.688V32.543z M217.893,13.593
		h3.062v2.974h-3.062V13.593z"/>
	<path fill="#FFFFFF" d="M225.43,29.9h2.553v0.991c0,1.291,1.802,1.893,3.482,1.893c1.712,0,3.063-0.691,3.063-1.953
		c0-1.531-1.682-2.013-3.784-2.764c-2.252-0.841-4.744-1.861-4.744-4.625c0-3.003,2.974-4.204,5.615-4.204
		c2.132,0,5.255,0.841,5.255,3.063v1.832h-2.553v-0.991c0-0.931-1.2-1.562-2.672-1.562c-1.441,0-2.703,0.601-2.703,1.832
		c0,1.44,1.682,2.041,3.514,2.672c2.343,0.781,5.016,1.771,5.016,4.595c0,2.882-2.644,4.474-6.097,4.474
		c-2.763,0-5.945-1.23-5.945-3.633V29.9z"/>
</g>
<path fill="#FFFFFF" d="M144.106,27.216c0,0,4.644-1.36,4.644-6.959c0-7.218-7.73-7.065-7.73-7.065h-9.979v21.433h4.746v-6.583
	h3.521l4.697,6.574h5.645L144.106,27.216z M141.046,23.647h-5.163v-6.258h5.163c0,0,2.891,0.175,2.891,2.888
	C143.936,23.516,141.046,23.647,141.046,23.647z"/>
<path fill="#FFFFFF" d="M122.491,30.724c0.522,0.539,0.508,1.4-0.031,1.921c-0.538,0.523-1.397,0.509-1.922-0.028
	c-0.521-0.541-30.293-32.863-30.293-32.863S121.969,30.184,122.491,30.724z"/>
<path fill="#FFFFFF" d="M124.881,26.87c0.438,0.454,0.43,1.178-0.025,1.619c-0.454,0.438-1.179,0.427-1.62-0.026
	C122.797,28.008,98.42,1.697,98.42,1.697S124.44,26.416,124.881,26.87z"/>
<path fill="#FFFFFF" d="M118.263,32.832c0.511,0.525,0.499,1.361-0.026,1.872c-0.525,0.507-1.365,0.495-1.877-0.028
	c-0.506-0.527-22.228-24.539-22.228-24.539S117.756,32.301,118.263,32.832z"/>
<path fill="#FFFFFF" d="M113.136,33.652c0.341,0.351,0.334,0.91-0.017,1.253c-0.352,0.338-0.914,0.329-1.256-0.021
	c-0.338-0.352-14.757-16.422-14.757-16.422S112.796,33.298,113.136,33.652z"/>
<path fill="#FFFFFF" d="M125.74,22.449c0.341,0.35,0.334,0.909-0.018,1.252c-0.352,0.338-0.913,0.331-1.254-0.021
	c-0.34-0.352-15.983-17.297-15.983-17.297S125.402,22.094,125.74,22.449z"/>
<path fill="#FFFFFF" d="M124.532,17.471c0.199,0.205,0.194,0.533-0.012,0.733c-0.206,0.198-0.534,0.194-0.734-0.012
	c-0.199-0.206-6.81-7.96-6.81-7.96S124.333,17.263,124.532,17.471z"/>
<path fill="#FFFFFF" d="M108.076,33.226c0.2,0.205,0.194,0.533-0.012,0.733c-0.206,0.197-0.534,0.194-0.735-0.012
	c-0.199-0.206-6.635-7.785-6.635-7.785S107.877,33.018,108.076,33.226z"/>
<polygon fill="#FFFFFF" points="1,13.192 1,34.625 6.118,34.625 6.118,21.766 12.242,30.133 17.754,21.46 17.754,34.625 
	23.111,34.625 23.111,13.192 17.792,13.192 12.055,22.005 6.731,13.192 "/>
<polygon fill="#FFFFFF" points="30.766,13.192 46.687,13.192 46.687,17.87 35.665,17.87 35.665,21.46 45.332,21.46 45.332,26.163 
	35.665,26.163 35.665,30.133 46.687,30.133 46.687,34.625 30.766,34.625 "/>
<polygon fill="#FFFFFF" points="77.157,13.192 93.078,13.192 93.078,17.87 82.055,17.87 82.055,21.46 91.722,21.46 91.722,26.163 
	82.055,26.163 82.055,30.133 93.078,30.133 93.078,34.625 77.157,34.625 "/>
<polygon fill="#FFFFFF" points="52.505,13.192 70.417,13.192 70.417,17.87 63.987,17.87 63.987,34.625 58.781,34.625 58.781,17.87 
	52.505,17.87 "/>
</svg>
