<?xml version="1.0" encoding="utf-8"?>
<!-- Generator: Adobe Illustrator 16.0.0, SVG Export Plug-In . SVG Version: 6.00 Build 0)  -->
<!DOCTYPE svg PUBLIC "-//W3C//DTD SVG 1.1//EN" "http://www.w3.org/Graphics/SVG/1.1/DTD/svg11.dtd">
<svg version="1.1" id="Layer_1" xmlns="http://www.w3.org/2000/svg" xmlns:xlink="http://www.w3.org/1999/xlink" x="0px" y="0px"
	 width="239.566px" height="237.234px" viewBox="0 0 239.566 237.234" enable-background="new 0 0 239.566 237.234"
	 xml:space="preserve">
<path fill="#EDD70A" d="M216.107,207.559c3.496,3.614,3.404,9.375-0.204,12.881c-3.617,3.495-9.382,3.405-12.878-0.207
	C199.522,216.624,0,0,0,0S212.603,203.945,216.107,207.559z"/>
<path fill="#BCBC0D" d="M232.123,181.729c2.947,3.041,2.88,7.892-0.167,10.847c-3.043,2.941-7.9,2.865-10.855-0.172
	C218.158,189.361,54.78,13.02,54.78,13.02S229.179,178.68,232.123,181.729z"/>
<path fill="#DDA300" d="M187.777,221.676c3.419,3.521,3.348,9.132-0.182,12.56c-3.517,3.395-9.148,3.315-12.581-0.201
	C171.615,230.512,26.038,69.578,26.038,69.578S184.374,218.128,187.777,221.676z"/>
<path fill="#DD6400" d="M153.411,227.182c2.285,2.354,2.237,6.101-0.118,8.386c-2.355,2.269-6.119,2.225-8.408-0.134
	c-2.27-2.354-98.901-110.054-98.901-110.054S151.14,224.807,153.411,227.182z"/>
<path fill="#8B9B2D" d="M237.884,152.095c2.288,2.354,2.237,6.099-0.115,8.391c-2.355,2.268-6.121,2.221-8.415-0.14
	c-2.269-2.354-107.111-115.919-107.111-115.919S235.61,149.723,237.884,152.095z"/>
<path fill="#379311" d="M229.785,118.732c1.34,1.377,1.299,3.572-0.073,4.919c-1.384,1.328-3.583,1.301-4.925-0.081
	c-1.332-1.379-45.646-53.348-45.646-53.348S228.453,117.343,229.785,118.732z"/>
<path fill="#E00000" d="M119.497,224.322c1.342,1.379,1.305,3.578-0.071,4.918c-1.381,1.332-3.586,1.302-4.924-0.077
	c-1.332-1.379-44.468-52.178-44.468-52.178S118.165,222.938,119.497,224.322z"/>
<circle fill="#E00000" cx="117.013" cy="226.75" r="3.468"/>
<circle fill="#DD6400" cx="149.193" cy="231.335" r="5.901"/>
<path fill="#DDA300" d="M190.292,227.861c0,4.896-3.971,8.865-8.865,8.865c-4.899,0-8.871-3.971-8.871-8.865
	c0-4.899,3.972-8.867,8.871-8.867C186.322,218.993,190.292,222.961,190.292,227.861z"/>
<path fill="#EDD70A" d="M218.67,213.912c0,5.019-4.071,9.09-9.089,9.09c-5.023,0-9.095-4.071-9.095-9.09
	c0-5.024,4.071-9.093,9.095-9.093C214.599,204.82,218.67,208.888,218.67,213.912z"/>
<path fill="#BCBC0D" d="M234.288,187.077c0,4.226-3.428,7.654-7.654,7.654c-4.23,0-7.658-3.43-7.658-7.654
	c0-4.231,3.428-7.657,7.658-7.657C230.861,179.42,234.288,182.846,234.288,187.077z"/>
<path fill="#8B9B2D" d="M239.568,156.204c0,3.283-2.663,5.946-5.946,5.946c-3.287,0-5.95-2.663-5.95-5.946
	c0-3.287,2.663-5.948,5.95-5.948C236.905,150.256,239.568,152.917,239.568,156.204z"/>
<circle fill="#379311" cx="227.313" cy="121.174" r="3.454"/>
</svg>
