<?xml version="1.0" encoding="utf-8"?>
<!-- Generator: Adobe Illustrator 16.0.0, SVG Export Plug-In . SVG Version: 6.00 Build 0)  -->
<!DOCTYPE svg PUBLIC "-//W3C//DTD SVG 1.1//EN" "http://www.w3.org/Graphics/SVG/1.1/DTD/svg11.dtd">
<svg version="1.1" id="Layer_1" xmlns="http://www.w3.org/2000/svg" xmlns:xlink="http://www.w3.org/1999/xlink" x="0px" y="0px"
	 width="237.472px" height="35.72px" viewBox="0 0 237.472 35.72" enable-background="new 0 0 237.472 35.72" xml:space="preserve">
<path fill="#FFFFFF" d="M144.405,27.712c0,0,4.686-1.064,4.686-6.713c0-7.284-7.8-7.129-7.8-7.129h-10.068v21.318h4.789v-6.642
	h3.553l4.738,6.634H150L144.405,27.712z M141.318,24.109h-5.21v-6.006h5.21c0,0,2.916,0.177,2.916,2.915
	C144.234,24.286,141.318,24.109,141.318,24.109z"/>
<path fill="#FFFFFF" d="M122.594,31.251c0.527,0.544,0.513,1.412-0.031,1.939c-0.544,0.527-1.412,0.513-1.938-0.031
	C120.097,32.616,90.056,0,90.056,0S122.067,30.707,122.594,31.251z"/>
<path fill="#FFFFFF" d="M125.006,27.362c0.443,0.458,0.433,1.188-0.025,1.633c-0.459,0.443-1.189,0.432-1.635-0.026
	C122.903,28.511,98.304,1.96,98.304,1.96S124.563,26.903,125.006,27.362z"/>
<path fill="#FFFFFF" d="M118.329,33.377c0.515,0.53,0.504,1.374-0.027,1.891c-0.529,0.511-1.378,0.5-1.895-0.03
	c-0.511-0.53-22.431-24.761-22.431-24.761S117.817,32.843,118.329,33.377z"/>
<path fill="#FFFFFF" d="M113.155,34.206c0.344,0.354,0.336,0.918-0.019,1.263c-0.354,0.342-0.921,0.334-1.266-0.021
	c-0.342-0.354-14.892-16.57-14.892-16.57S112.812,33.849,113.155,34.206z"/>
<path fill="#FFFFFF" d="M125.874,22.9c0.344,0.354,0.336,0.918-0.018,1.263c-0.355,0.341-0.922,0.334-1.267-0.021
	c-0.342-0.354-16.128-17.454-16.128-17.454S125.531,22.543,125.874,22.9z"/>
<path fill="#FFFFFF" d="M124.654,17.877c0.201,0.208,0.196,0.538-0.011,0.74c-0.209,0.2-0.54,0.196-0.742-0.012
	c-0.2-0.208-6.872-8.033-6.872-8.033S124.453,17.668,124.654,17.877z"/>
<path fill="#FFFFFF" d="M108.048,33.776c0.202,0.207,0.196,0.538-0.011,0.74c-0.208,0.2-0.539,0.196-0.741-0.012
	c-0.201-0.208-6.696-7.856-6.696-7.856S107.848,33.566,108.048,33.776z"/>
<polygon fill="#FFFFFF" points="0,13.715 0,35.188 5.165,35.188 5.165,22.211 11.344,30.655 16.906,21.902 16.906,35.188 
	22.312,35.188 22.312,13.715 17.17,13.251 11.156,22.453 5.783,13.561 "/>
<polygon fill="#FFFFFF" points="30.037,13.561 46.103,13.715 46.103,18.28 34.98,18.28 34.98,21.902 44.734,21.902 44.734,26.648 
	34.98,26.648 34.98,30.655 46.103,30.655 46.103,35.188 30.037,35.188 "/>
<polygon fill="#FFFFFF" points="76.849,13.561 92.915,13.715 92.915,18.28 81.792,18.28 81.792,21.902 91.546,21.902 91.546,26.648 
	81.792,26.648 81.792,30.655 92.915,30.655 92.915,35.188 76.849,35.188 "/>
<polygon fill="#FFFFFF" points="51.973,13.561 70.047,13.561 70.047,18.28 63.559,18.28 63.559,35.188 58.307,35.188 58.307,18.28 
	51.973,18.28 "/>
<g>
	<path fill="#FFFFFF" d="M169.544,25.456h0.961v-0.571c0-2.402-1.382-3.243-3.243-3.243c-2.402,0-4.354,1.472-4.354,1.472
		l-1.171-2.072c0,0,2.222-1.802,5.766-1.802c3.874,0,5.915,2.013,5.915,5.856v6.786c0,0.451,0.241,0.662,0.661,0.662h1.531v2.252
		h-3.032c-1.352,0-1.893-0.66-1.893-1.652v-0.209c0-0.602,0.12-0.992,0.12-0.992h-0.06c0,0-1.321,3.213-5.016,3.213
		c-2.522,0-5.045-1.471-5.045-4.594C160.685,25.786,167.022,25.456,169.544,25.456z M166.361,32.902
		c2.583,0,4.174-2.642,4.174-4.924v-0.631h-0.75c-1.382,0-6.157,0.061-6.157,2.973C163.627,31.672,164.62,32.902,166.361,32.902z"/>
	<path fill="#FFFFFF" d="M184.529,19.239c3.454,0,4.685,2.553,4.685,2.553h0.061c0,0-0.09-0.48-0.09-1.141v-4.805h-2.522v-2.253
		h5.435v18.288c0,0.451,0.24,0.662,0.661,0.662h1.531v2.252h-3.033c-1.352,0-1.892-0.66-1.892-1.652v-0.209
		c0-0.512,0.091-0.812,0.091-0.812h-0.061c0,0-1.231,3.033-5.135,3.033c-4.084,0-6.637-3.242-6.637-7.958
		C177.623,22.362,180.445,19.239,184.529,19.239z M184.889,32.633c2.253,0,4.385-1.622,4.385-5.406c0-2.793-1.411-5.436-4.294-5.436
		c-2.433,0-4.385,1.952-4.385,5.405C180.595,30.5,182.367,32.633,184.889,32.633z"/>
	<path fill="#FFFFFF" d="M203.417,19.239c3.454,0,4.686,2.553,4.686,2.553h0.06c0,0-0.09-0.48-0.09-1.141v-4.805h-2.522v-2.253
		h5.436v18.288c0,0.451,0.24,0.662,0.66,0.662h1.532v2.252h-3.033c-1.352,0-1.892-0.66-1.892-1.652v-0.209
		c0-0.512,0.09-0.812,0.09-0.812h-0.061c0,0-1.23,3.033-5.135,3.033c-4.084,0-6.637-3.242-6.637-7.958
		C196.511,22.362,199.333,19.239,203.417,19.239z M203.779,32.633c2.252,0,4.384-1.622,4.384-5.406c0-2.793-1.411-5.436-4.294-5.436
		c-2.433,0-4.385,1.952-4.385,5.405C199.484,30.5,201.256,32.633,203.779,32.633z"/>
	<path fill="#FFFFFF" d="M215.581,32.543h2.372V21.852h-2.522v-2.253h5.436v12.944h2.402v2.252h-7.688V32.543z M217.893,13.593
		h3.062v2.974h-3.062V13.593z"/>
	<path fill="#FFFFFF" d="M225.43,29.9h2.553v0.991c0,1.291,1.802,1.892,3.483,1.892c1.712,0,3.063-0.691,3.063-1.953
		c0-1.531-1.682-2.012-3.784-2.763c-2.252-0.841-4.744-1.861-4.744-4.625c0-3.003,2.973-4.204,5.615-4.204
		c2.132,0,5.255,0.841,5.255,3.063v1.832h-2.553v-0.991c0-0.931-1.2-1.562-2.672-1.562c-1.441,0-2.703,0.601-2.703,1.832
		c0,1.441,1.682,2.042,3.514,2.672c2.343,0.781,5.015,1.772,5.015,4.595c0,2.882-2.643,4.474-6.096,4.474
		c-2.763,0-5.946-1.23-5.946-3.633V29.9z"/>
</g>
</svg>
