<?xml version="1.0" encoding="utf-8"?>
<!-- Generator: Adobe Illustrator 16.0.0, SVG Export Plug-In . SVG Version: 6.00 Build 0)  -->
<!DOCTYPE svg PUBLIC "-//W3C//DTD SVG 1.1//EN" "http://www.w3.org/Graphics/SVG/1.1/DTD/svg11.dtd">
<svg version="1.1" id="Layer_1" xmlns="http://www.w3.org/2000/svg" xmlns:xlink="http://www.w3.org/1999/xlink" x="0px" y="0px"
	 width="379.898px" height="162.152px" viewBox="310.051 418.924 379.898 162.152"
	 enable-background="new 310.051 418.924 379.898 162.152" xml:space="preserve">
<path fill="#FFFFFF" d="M675.78,489.109c0,0,11.866-3.478,11.866-17.786c0-18.446-19.754-18.055-19.754-18.055h-25.501v54.775
	h12.129v-16.824h8.998l12.002,16.802h14.429L675.78,489.109z M667.96,479.985h-13.193v-15.994h13.193c0,0,7.388,0.448,7.388,7.382
	C675.348,479.65,667.96,479.985,667.96,479.985z"/>
<path fill="#FFFFFF" d="M620.541,498.072c1.333,1.378,1.299,3.576-0.079,4.911s-3.575,1.299-4.911-0.076
	c-1.335-1.379-77.42-83.983-77.42-83.983S619.206,496.694,620.541,498.072z"/>
<path fill="#FFFFFF" d="M626.647,488.223c1.123,1.16,1.097,3.009-0.063,4.136c-1.161,1.122-3.013,1.092-4.14-0.065
	c-1.123-1.162-63.423-68.405-63.423-68.405S625.524,487.06,626.647,488.223z"/>
<path fill="#FFFFFF" d="M609.735,503.457c1.305,1.343,1.278,3.48-0.066,4.787c-1.343,1.295-3.489,1.265-4.798-0.076
	c-1.297-1.343-56.811-62.711-56.811-62.711S608.439,502.104,609.735,503.457z"/>
<path fill="#FFFFFF" d="M596.633,505.556c0.872,0.896,0.853,2.325-0.045,3.199c-0.899,0.865-2.334,0.846-3.208-0.051
	c-0.866-0.899-37.714-41.969-37.714-41.969S595.765,504.65,596.633,505.556z"/>
<path fill="#FFFFFF" d="M628.844,476.922c0.873,0.897,0.853,2.325-0.045,3.199c-0.897,0.865-2.332,0.847-3.206-0.051
	c-0.866-0.897-40.847-44.205-40.847-44.205S627.979,476.018,628.844,476.922z"/>
<path fill="#FFFFFF" d="M625.755,464.2c0.511,0.526,0.499,1.362-0.026,1.875c-0.528,0.507-1.368,0.496-1.879-0.03
	c-0.508-0.527-17.404-20.344-17.404-20.344S625.247,463.671,625.755,464.2z"/>
<path fill="#FFFFFF" d="M583.701,504.467c0.511,0.524,0.497,1.361-0.028,1.874c-0.528,0.506-1.366,0.495-1.879-0.03
	c-0.508-0.526-16.957-19.896-16.957-19.896S583.191,503.937,583.701,504.467z"/>
<polygon fill="#FFFFFF" points="310.051,453.268 310.051,508.043 323.132,508.043 323.132,475.178 338.782,496.563 352.868,474.396 
	352.868,508.043 366.561,508.043 366.561,453.268 352.966,453.268 338.306,475.791 324.697,453.268 "/>
<polygon fill="#FFFFFF" points="386.124,453.268 426.813,453.268 426.813,465.221 398.644,465.221 398.644,474.396 423.348,474.396 
	423.348,486.414 398.644,486.414 398.644,496.563 426.813,496.563 426.813,508.043 386.124,508.043 "/>
<polygon fill="#FFFFFF" points="504.683,453.268 545.372,453.268 545.372,465.221 517.201,465.221 517.201,474.396 541.907,474.396 
	541.907,486.414 517.201,486.414 517.201,496.563 545.372,496.563 545.372,508.043 504.683,508.043 "/>
<polygon fill="#FFFFFF" points="441.681,453.268 487.457,453.268 487.457,465.221 471.024,465.221 471.024,508.043 457.722,508.043 
	457.722,465.221 441.681,465.221 "/>
<g enable-background="new    ">
	<path fill="#FFFFFF" d="M425.199,556.511h2.434v-1.446c0-6.084-3.499-8.214-8.214-8.214c-6.084,0-11.028,3.728-11.028,3.728
		l-2.966-5.248c0,0,5.628-4.562,14.603-4.562c9.811,0,14.983,5.096,14.983,14.83v17.188c0,1.143,0.608,1.675,1.673,1.675h3.879
		v5.703h-7.682c-3.422,0-4.792-1.673-4.792-4.183v-0.533c0-1.52,0.304-2.509,0.304-2.509h-0.152c0,0-3.346,8.138-12.702,8.138
		c-6.389,0-12.777-3.727-12.777-11.637C402.762,557.348,418.81,556.511,425.199,556.511z M417.137,575.371
		c6.541,0,10.571-6.692,10.571-12.472v-1.597h-1.901c-3.499,0-15.592,0.151-15.592,7.529
		C410.215,572.254,412.726,575.371,417.137,575.371z"/>
	<path fill="#FFFFFF" d="M463.15,540.768c8.747,0,11.865,6.463,11.865,6.463h0.152c0,0-0.229-1.217-0.229-2.89v-12.168h-6.389
		v-5.705h13.766v46.317c0,1.143,0.609,1.675,1.674,1.675h3.878v5.703h-7.682c-3.422,0-4.791-1.673-4.791-4.183v-0.533
		c0-1.293,0.228-2.053,0.228-2.053h-0.152c0,0-3.119,7.682-13.005,7.682c-10.343,0-16.808-8.215-16.808-20.155
		C445.658,548.676,452.807,540.768,463.15,540.768z M464.063,574.688c5.705,0,11.104-4.106,11.104-13.69
		c0-7.072-3.575-13.767-10.876-13.767c-6.16,0-11.104,4.944-11.104,13.69C453.187,569.288,457.674,574.688,464.063,574.688z"/>
	<path fill="#FFFFFF" d="M510.99,540.768c8.746,0,11.865,6.463,11.865,6.463h0.15c0,0-0.228-1.217-0.228-2.89v-12.168h-6.389v-5.705
		h13.767v46.317c0,1.143,0.608,1.675,1.674,1.675h3.879v5.703h-7.682c-3.423,0-4.792-1.673-4.792-4.183v-0.533
		c0-1.293,0.229-2.053,0.229-2.053h-0.152c0,0-3.119,7.682-13.007,7.682c-10.342,0-16.807-8.215-16.807-20.155
		C493.498,548.676,500.646,540.768,510.99,540.768z M511.903,574.688c5.703,0,11.103-4.106,11.103-13.69
		c0-7.072-3.573-13.767-10.875-13.767c-6.159,0-11.104,4.944-11.104,13.69C501.026,569.288,505.514,574.688,511.903,574.688z"/>
	<path fill="#FFFFFF" d="M541.794,574.46h6.009v-27.077h-6.391v-5.704h13.767v32.781h6.085v5.703h-19.47V574.46z M547.649,526.468
		h7.757v7.53h-7.757V526.468z"/>
	<path fill="#FFFFFF" d="M566.739,567.766h6.465v2.512c0,3.27,4.563,4.79,8.822,4.79c4.336,0,7.758-1.749,7.758-4.942
		c0-3.88-4.259-5.096-9.583-6.998c-5.704-2.13-12.016-4.716-12.016-11.712c0-7.605,7.528-10.647,14.221-10.647
		c5.401,0,13.311,2.129,13.311,7.758v4.639h-6.465v-2.51c0-2.358-3.043-3.955-6.768-3.955c-3.651,0-6.847,1.521-6.847,4.64
		c0,3.649,4.259,5.172,8.9,6.769c5.932,1.977,12.699,4.486,12.699,11.637c0,7.302-6.692,11.332-15.438,11.332
		c-6.998,0-15.06-3.119-15.06-9.202V567.766z"/>
</g>
</svg>
