<?xml version="1.0" encoding="utf-8"?>
<!-- Generator: Adobe Illustrator 16.0.0, SVG Export Plug-In . SVG Version: 6.00 Build 0)  -->
<!DOCTYPE svg PUBLIC "-//W3C//DTD SVG 1.1//EN" "http://www.w3.org/Graphics/SVG/1.1/DTD/svg11.dtd">
<svg version="1.1" id="Layer_1" xmlns="http://www.w3.org/2000/svg" xmlns:xlink="http://www.w3.org/1999/xlink" x="0px" y="0px"
	 width="239.567px" height="237.235px" viewBox="356.423 404.5 239.567 237.235"
	 enable-background="new 356.423 404.5 239.567 237.235" xml:space="preserve">
<path fill="#EDD70A" d="M572.529,612.059c3.496,3.614,3.405,9.375-0.204,12.88c-3.617,3.496-9.382,3.406-12.878-0.207
	C555.944,621.124,356.423,404.5,356.423,404.5S569.025,608.444,572.529,612.059z"/>
<path fill="#BCBC0D" d="M588.546,586.229c2.947,3.041,2.88,7.891-0.167,10.846c-3.043,2.942-7.901,2.865-10.856-0.172
	c-2.942-3.043-166.321-179.383-166.321-179.383S585.602,583.18,588.546,586.229z"/>
<path fill="#DDA300" d="M544.199,626.176c3.419,3.521,3.348,9.132-0.181,12.559c-3.517,3.395-9.149,3.316-12.581-0.201
	c-3.4-3.522-148.976-164.456-148.976-164.456S540.797,622.628,544.199,626.176z"/>
<path fill="#DD6400" d="M509.834,631.682c2.285,2.354,2.237,6.1-0.118,8.385c-2.356,2.269-6.119,2.225-8.408-0.133
	c-2.27-2.354-98.902-110.054-98.902-110.054S507.562,629.307,509.834,631.682z"/>
<path fill="#8B9B2D" d="M594.307,556.595c2.289,2.353,2.237,6.098-0.116,8.39c-2.355,2.268-6.121,2.221-8.415-0.139
	c-2.268-2.354-107.111-115.919-107.111-115.919S592.032,554.223,594.307,556.595z"/>
<path fill="#379311" d="M586.208,523.231c1.34,1.377,1.299,3.573-0.073,4.919c-1.384,1.328-3.583,1.301-4.925-0.081
	c-1.332-1.379-45.646-53.347-45.646-53.347S584.876,521.843,586.208,523.231z"/>
<path fill="#E00000" d="M475.92,628.821c1.342,1.379,1.305,3.578-0.071,4.918c-1.381,1.332-3.586,1.302-4.924-0.077
	c-1.332-1.379-44.468-52.178-44.468-52.178S474.588,627.438,475.92,628.821z"/>
</svg>
