<?xml version="1.0" encoding="utf-8"?>
<!-- Generator: Adobe Illustrator 16.0.0, SVG Export Plug-In . SVG Version: 6.00 Build 0)  -->
<!DOCTYPE svg PUBLIC "-//W3C//DTD SVG 1.1//EN" "http://www.w3.org/Graphics/SVG/1.1/DTD/svg11.dtd">
<svg version="1.1" id="Layer_1" xmlns="http://www.w3.org/2000/svg" xmlns:xlink="http://www.w3.org/1999/xlink" x="0px" y="0px"
	 width="453px" height="193.354px" viewBox="273.5 403.323 453 193.354" enable-background="new 273.5 403.323 453 193.354"
	 xml:space="preserve">
<path fill="#FFFFFF" d="M709.603,487.013c0,0,14.153-4.146,14.153-21.208c0-21.996-23.557-21.529-23.557-21.529h-30.408v65.313
	h14.461v-20.061h10.729l14.312,20.036H726.5L709.603,487.013z M700.278,476.133h-15.73v-19.07h15.73c0,0,8.811,0.533,8.811,8.801
	C709.089,475.734,700.278,476.133,700.278,476.133z"/>
<path fill="#EDD70A" d="M643.734,497.702c1.59,1.643,1.549,4.263-0.093,5.856c-1.645,1.59-4.266,1.55-5.855-0.093
	c-1.593-1.642-92.316-100.142-92.316-100.142S642.142,496.058,643.734,497.702z"/>
<path fill="#BCBC0D" d="M651.018,485.957c1.34,1.383,1.31,3.588-0.076,4.931c-1.384,1.338-3.593,1.303-4.937-0.078
	c-1.338-1.384-75.627-81.567-75.627-81.567S649.679,484.57,651.018,485.957z"/>
<path fill="#DDA300" d="M630.853,504.12c1.555,1.603,1.522,4.153-0.082,5.711c-1.599,1.544-4.16,1.509-5.721-0.092
	c-1.546-1.602-67.74-74.779-67.74-74.779S629.306,502.508,630.853,504.12z"/>
<path fill="#DD6400" d="M615.227,506.624c1.039,1.071,1.018,2.773-0.054,3.813c-1.071,1.031-2.782,1.011-3.823-0.061
	c-1.032-1.071-44.972-50.042-44.972-50.042S614.193,505.545,615.227,506.624z"/>
<path fill="#8B9B2D" d="M653.637,472.482c1.041,1.069,1.018,2.772-0.053,3.814c-1.071,1.031-2.783,1.01-3.826-0.062
	c-1.031-1.071-48.704-52.71-48.704-52.71S652.603,471.403,653.637,472.482z"/>
<path fill="#379311" d="M649.954,457.312c0.609,0.626,0.591,1.625-0.033,2.236c-0.629,0.604-1.629,0.591-2.239-0.037
	c-0.605-0.627-20.756-24.257-20.756-24.257S649.349,456.68,649.954,457.312z"/>
<path fill="#E00000" d="M599.806,505.324c0.61,0.627,0.594,1.626-0.032,2.236c-0.628,0.604-1.631,0.591-2.239-0.035
	c-0.605-0.628-20.22-23.726-20.22-23.726S599.2,504.694,599.806,505.324z"/>
<polygon fill="#FFFFFF" points="273.5,444.276 273.5,509.59 289.1,509.59 289.1,470.401 307.76,495.902 324.556,469.469 
	324.556,509.59 340.884,509.59 340.884,444.276 324.673,444.276 307.192,471.131 290.965,444.276 "/>
<polygon fill="#FFFFFF" points="364.21,444.276 412.73,444.276 412.73,458.529 379.141,458.529 379.141,469.469 408.599,469.469 
	408.599,483.799 379.141,483.799 379.141,495.902 412.73,495.902 412.73,509.59 364.21,509.59 "/>
<polygon fill="#FFFFFF" points="505.584,444.276 554.103,444.276 554.103,458.529 520.513,458.529 520.513,469.469 549.97,469.469 
	549.97,483.799 520.513,483.799 520.513,495.902 554.103,495.902 554.103,509.59 505.584,509.59 "/>
<polygon fill="#FFFFFF" points="430.458,444.276 485.042,444.276 485.042,458.529 465.449,458.529 465.449,509.59 449.587,509.59 
	449.587,458.529 430.458,458.529 "/>
<g enable-background="new    ">
	<path fill="#FFFFFF" d="M410.805,567.385h2.902v-1.725c0-7.254-4.172-9.794-9.795-9.794c-7.254,0-13.149,4.444-13.149,4.444
		l-3.537-6.258c0,0,6.711-5.442,17.412-5.442c11.699,0,17.866,6.077,17.866,17.687v20.494c0,1.362,0.726,1.997,1.996,1.997h4.625
		v6.801h-9.159c-4.08,0-5.714-1.995-5.714-4.988v-0.635c0-1.812,0.364-2.991,0.364-2.991h-0.181c0,0-3.991,9.702-15.146,9.702
		c-7.617,0-15.236-4.443-15.236-13.875C384.051,568.381,403.188,567.385,410.805,567.385z M401.192,589.876
		c7.799,0,12.606-7.981,12.606-14.873v-1.905h-2.268c-4.172,0-18.592,0.182-18.592,8.979
		C392.938,586.158,395.932,589.876,401.192,589.876z"/>
	<path fill="#FFFFFF" d="M456.06,548.61c10.43,0,14.148,7.709,14.148,7.709h0.182c0,0-0.272-1.45-0.272-3.444v-14.512h-7.619v-6.803
		h16.415v55.23c0,1.362,0.726,1.997,1.996,1.997h4.625v6.801h-9.16c-4.082,0-5.712-1.995-5.712-4.988v-0.635
		c0-1.541,0.271-2.448,0.271-2.448h-0.181c0,0-3.719,9.159-15.508,9.159c-12.334,0-20.042-9.796-20.042-24.032
		C435.201,558.043,443.726,548.61,456.06,548.61z M457.148,589.059c6.802,0,13.241-4.896,13.241-16.324
		c0-8.434-4.264-16.415-12.969-16.415c-7.347,0-13.241,5.894-13.241,16.325C444.179,582.62,449.529,589.059,457.148,589.059z"/>
	<path fill="#FFFFFF" d="M513.104,548.61c10.432,0,14.149,7.709,14.149,7.709h0.182c0,0-0.271-1.45-0.271-3.444v-14.512h-7.619
		v-6.803h16.415v55.23c0,1.362,0.727,1.997,1.996,1.997h4.625v6.801h-9.159c-4.084,0-5.714-1.995-5.714-4.988v-0.635
		c0-1.541,0.271-2.448,0.271-2.448h-0.181c0,0-3.718,9.159-15.51,9.159c-12.334,0-20.042-9.796-20.042-24.032
		C492.246,558.043,500.771,548.61,513.104,548.61z M514.194,589.059c6.801,0,13.24-4.896,13.24-16.324
		c0-8.434-4.263-16.415-12.969-16.415c-7.346,0-13.241,5.894-13.241,16.325C501.225,582.62,506.575,589.059,514.194,589.059z"/>
	<path fill="#FFFFFF" d="M549.836,588.788H557v-32.287h-7.619v-6.803h16.415v39.09h7.258v6.801h-23.218V588.788z M556.818,531.561
		h9.251v8.98h-9.251V531.561z"/>
	<path fill="#FFFFFF" d="M579.583,580.807h7.709v2.993c0,3.899,5.441,5.713,10.519,5.713c5.172,0,9.251-2.087,9.251-5.895
		c0-4.624-5.079-6.075-11.428-8.344c-6.802-2.54-14.328-5.623-14.328-13.968c0-9.068,8.978-12.696,16.956-12.696
		c6.441,0,15.872,2.54,15.872,9.251v5.532h-7.708v-2.991c0-2.813-3.628-4.718-8.07-4.718c-4.354,0-8.164,1.814-8.164,5.532
		c0,4.354,5.079,6.168,10.61,8.071c7.074,2.358,15.146,5.352,15.146,13.875c0,8.708-7.979,13.514-18.409,13.514
		c-8.344,0-17.956-3.718-17.956-10.974V580.807z"/>
</g>
</svg>
